<mxfile host="app.diagrams.net" agent="Mozilla/5.0 (Windows NT 10.0; Win64; x64; rv:130.0) Gecko/20100101 Firefox/130.0" version="24.7.12">
  <diagram id="C5RBs43oDa-KdzZeNtuy" name="Page-1">
    <mxGraphModel dx="1247" dy="649" grid="1" gridSize="10" guides="1" tooltips="1" connect="1" arrows="1" fold="1" page="1" pageScale="1" pageWidth="827" pageHeight="1169" math="0" shadow="0">
      <root>
        <mxCell id="WIyWlLk6GJQsqaUBKTNV-0" />
        <mxCell id="WIyWlLk6GJQsqaUBKTNV-1" parent="WIyWlLk6GJQsqaUBKTNV-0" />
        <mxCell id="WIyWlLk6GJQsqaUBKTNV-2" value="" style="rounded=0;html=1;jettySize=auto;orthogonalLoop=1;fontSize=11;endArrow=block;endFill=0;endSize=8;strokeWidth=1;shadow=0;labelBackgroundColor=none;edgeStyle=orthogonalEdgeStyle;" parent="WIyWlLk6GJQsqaUBKTNV-1" source="WIyWlLk6GJQsqaUBKTNV-3" edge="1">
          <mxGeometry relative="1" as="geometry">
            <mxPoint x="220" y="220" as="targetPoint" />
          </mxGeometry>
        </mxCell>
        <mxCell id="WIyWlLk6GJQsqaUBKTNV-3" value="&lt;font face=&quot;Courier New&quot;&gt;Power ON&lt;/font&gt;" style="rounded=1;whiteSpace=wrap;html=1;fontSize=12;glass=0;strokeWidth=1;shadow=0;" parent="WIyWlLk6GJQsqaUBKTNV-1" vertex="1">
          <mxGeometry x="160" y="90" width="120" height="40" as="geometry" />
        </mxCell>
        <mxCell id="ltgAiF2F9rneKgyUhhyH-6" style="edgeStyle=orthogonalEdgeStyle;rounded=0;orthogonalLoop=1;jettySize=auto;html=1;exitX=1;exitY=0.5;exitDx=0;exitDy=0;entryX=0;entryY=0.5;entryDx=0;entryDy=0;" edge="1" parent="WIyWlLk6GJQsqaUBKTNV-1" source="ltgAiF2F9rneKgyUhhyH-1" target="ltgAiF2F9rneKgyUhhyH-5">
          <mxGeometry relative="1" as="geometry" />
        </mxCell>
        <mxCell id="ltgAiF2F9rneKgyUhhyH-8" value="&lt;font face=&quot;Courier New&quot;&gt;Yes&lt;/font&gt;" style="edgeLabel;html=1;align=center;verticalAlign=middle;resizable=0;points=[];" vertex="1" connectable="0" parent="ltgAiF2F9rneKgyUhhyH-6">
          <mxGeometry x="0.0793" y="2" relative="1" as="geometry">
            <mxPoint y="-8" as="offset" />
          </mxGeometry>
        </mxCell>
        <mxCell id="ltgAiF2F9rneKgyUhhyH-16" style="edgeStyle=orthogonalEdgeStyle;rounded=0;orthogonalLoop=1;jettySize=auto;html=1;exitX=0.5;exitY=1;exitDx=0;exitDy=0;entryX=0.5;entryY=0;entryDx=0;entryDy=0;" edge="1" parent="WIyWlLk6GJQsqaUBKTNV-1" source="ltgAiF2F9rneKgyUhhyH-1" target="ltgAiF2F9rneKgyUhhyH-15">
          <mxGeometry relative="1" as="geometry" />
        </mxCell>
        <mxCell id="ltgAiF2F9rneKgyUhhyH-17" value="&lt;font face=&quot;Courier New&quot;&gt;No&lt;/font&gt;" style="edgeLabel;html=1;align=center;verticalAlign=middle;resizable=0;points=[];" vertex="1" connectable="0" parent="ltgAiF2F9rneKgyUhhyH-16">
          <mxGeometry x="-0.3483" relative="1" as="geometry">
            <mxPoint x="20" y="21" as="offset" />
          </mxGeometry>
        </mxCell>
        <mxCell id="ltgAiF2F9rneKgyUhhyH-1" value="&lt;font face=&quot;Courier New&quot;&gt;Azimuth limit&lt;/font&gt;" style="rhombus;whiteSpace=wrap;html=1;" vertex="1" parent="WIyWlLk6GJQsqaUBKTNV-1">
          <mxGeometry x="160" y="220" width="120" height="80" as="geometry" />
        </mxCell>
        <mxCell id="ltgAiF2F9rneKgyUhhyH-19" style="edgeStyle=orthogonalEdgeStyle;rounded=0;orthogonalLoop=1;jettySize=auto;html=1;exitX=1;exitY=0.5;exitDx=0;exitDy=0;endArrow=none;endFill=0;" edge="1" parent="WIyWlLk6GJQsqaUBKTNV-1" source="ltgAiF2F9rneKgyUhhyH-2">
          <mxGeometry relative="1" as="geometry">
            <mxPoint x="719.9999999999998" y="259.79310344827593" as="targetPoint" />
          </mxGeometry>
        </mxCell>
        <mxCell id="ltgAiF2F9rneKgyUhhyH-2" value="&lt;font face=&quot;Courier New&quot;&gt;Reset azimuth position left turn&lt;br&gt;&lt;/font&gt;" style="rounded=1;whiteSpace=wrap;html=1;" vertex="1" parent="WIyWlLk6GJQsqaUBKTNV-1">
          <mxGeometry x="540" y="237.5" width="120" height="45" as="geometry" />
        </mxCell>
        <mxCell id="ltgAiF2F9rneKgyUhhyH-9" style="edgeStyle=orthogonalEdgeStyle;rounded=0;orthogonalLoop=1;jettySize=auto;html=1;exitX=1;exitY=0.5;exitDx=0;exitDy=0;" edge="1" parent="WIyWlLk6GJQsqaUBKTNV-1" source="ltgAiF2F9rneKgyUhhyH-5" target="ltgAiF2F9rneKgyUhhyH-2">
          <mxGeometry relative="1" as="geometry" />
        </mxCell>
        <mxCell id="ltgAiF2F9rneKgyUhhyH-11" value="&lt;font face=&quot;Courier New&quot;&gt;Yes&lt;/font&gt;" style="edgeLabel;html=1;align=center;verticalAlign=middle;resizable=0;points=[];" vertex="1" connectable="0" parent="ltgAiF2F9rneKgyUhhyH-9">
          <mxGeometry x="0.0908" relative="1" as="geometry">
            <mxPoint y="-10" as="offset" />
          </mxGeometry>
        </mxCell>
        <mxCell id="ltgAiF2F9rneKgyUhhyH-13" style="edgeStyle=orthogonalEdgeStyle;rounded=0;orthogonalLoop=1;jettySize=auto;html=1;exitX=0.5;exitY=1;exitDx=0;exitDy=0;" edge="1" parent="WIyWlLk6GJQsqaUBKTNV-1" source="ltgAiF2F9rneKgyUhhyH-5" target="ltgAiF2F9rneKgyUhhyH-12">
          <mxGeometry relative="1" as="geometry" />
        </mxCell>
        <mxCell id="ltgAiF2F9rneKgyUhhyH-14" value="&lt;font face=&quot;Courier New&quot;&gt;No&lt;/font&gt;" style="edgeLabel;html=1;align=center;verticalAlign=middle;resizable=0;points=[];" vertex="1" connectable="0" parent="ltgAiF2F9rneKgyUhhyH-13">
          <mxGeometry x="-0.0152" y="2" relative="1" as="geometry">
            <mxPoint x="8" as="offset" />
          </mxGeometry>
        </mxCell>
        <mxCell id="ltgAiF2F9rneKgyUhhyH-5" value="&lt;font face=&quot;Courier New&quot;&gt;Right Limit&lt;/font&gt;" style="rhombus;whiteSpace=wrap;html=1;" vertex="1" parent="WIyWlLk6GJQsqaUBKTNV-1">
          <mxGeometry x="350" y="220" width="120" height="80" as="geometry" />
        </mxCell>
        <mxCell id="ltgAiF2F9rneKgyUhhyH-18" style="edgeStyle=orthogonalEdgeStyle;rounded=0;orthogonalLoop=1;jettySize=auto;html=1;exitX=1;exitY=0.5;exitDx=0;exitDy=0;" edge="1" parent="WIyWlLk6GJQsqaUBKTNV-1" source="ltgAiF2F9rneKgyUhhyH-12">
          <mxGeometry relative="1" as="geometry">
            <mxPoint x="220" y="170" as="targetPoint" />
            <Array as="points">
              <mxPoint x="720" y="372" />
              <mxPoint x="720" y="170" />
              <mxPoint x="220" y="170" />
            </Array>
          </mxGeometry>
        </mxCell>
        <mxCell id="ltgAiF2F9rneKgyUhhyH-12" value="&lt;font face=&quot;Courier New&quot;&gt;Reset azimuth position right turn&lt;br&gt;&lt;/font&gt;" style="rounded=1;whiteSpace=wrap;html=1;" vertex="1" parent="WIyWlLk6GJQsqaUBKTNV-1">
          <mxGeometry x="350" y="350" width="120" height="45" as="geometry" />
        </mxCell>
        <mxCell id="ltgAiF2F9rneKgyUhhyH-21" style="edgeStyle=orthogonalEdgeStyle;rounded=0;orthogonalLoop=1;jettySize=auto;html=1;exitX=0.5;exitY=1;exitDx=0;exitDy=0;entryX=0.5;entryY=0;entryDx=0;entryDy=0;" edge="1" parent="WIyWlLk6GJQsqaUBKTNV-1" source="ltgAiF2F9rneKgyUhhyH-15" target="ltgAiF2F9rneKgyUhhyH-20">
          <mxGeometry relative="1" as="geometry" />
        </mxCell>
        <mxCell id="ltgAiF2F9rneKgyUhhyH-22" value="&lt;font face=&quot;Courier New&quot;&gt;No&lt;/font&gt;" style="edgeLabel;html=1;align=center;verticalAlign=middle;resizable=0;points=[];" vertex="1" connectable="0" parent="ltgAiF2F9rneKgyUhhyH-21">
          <mxGeometry x="0.0578" relative="1" as="geometry">
            <mxPoint x="20" as="offset" />
          </mxGeometry>
        </mxCell>
        <mxCell id="ltgAiF2F9rneKgyUhhyH-15" value="&lt;font face=&quot;Courier New&quot;&gt;Left &amp;gt; Right&lt;/font&gt;" style="rhombus;whiteSpace=wrap;html=1;" vertex="1" parent="WIyWlLk6GJQsqaUBKTNV-1">
          <mxGeometry x="157.5" y="420" width="125" height="80" as="geometry" />
        </mxCell>
        <mxCell id="ltgAiF2F9rneKgyUhhyH-25" style="edgeStyle=orthogonalEdgeStyle;rounded=0;orthogonalLoop=1;jettySize=auto;html=1;entryX=0.5;entryY=0;entryDx=0;entryDy=0;" edge="1" parent="WIyWlLk6GJQsqaUBKTNV-1" source="ltgAiF2F9rneKgyUhhyH-20" target="ltgAiF2F9rneKgyUhhyH-23">
          <mxGeometry relative="1" as="geometry" />
        </mxCell>
        <mxCell id="ltgAiF2F9rneKgyUhhyH-27" value="&lt;font face=&quot;Courier New&quot;&gt;No&lt;/font&gt;" style="edgeLabel;html=1;align=center;verticalAlign=middle;resizable=0;points=[];" vertex="1" connectable="0" parent="ltgAiF2F9rneKgyUhhyH-25">
          <mxGeometry x="-0.0854" y="-1" relative="1" as="geometry">
            <mxPoint x="21" as="offset" />
          </mxGeometry>
        </mxCell>
        <mxCell id="ltgAiF2F9rneKgyUhhyH-20" value="&lt;font face=&quot;Courier New&quot;&gt;Left &amp;lt; Right&lt;/font&gt;" style="rhombus;whiteSpace=wrap;html=1;" vertex="1" parent="WIyWlLk6GJQsqaUBKTNV-1">
          <mxGeometry x="160" y="630" width="120" height="80" as="geometry" />
        </mxCell>
        <mxCell id="ltgAiF2F9rneKgyUhhyH-26" style="edgeStyle=orthogonalEdgeStyle;rounded=0;orthogonalLoop=1;jettySize=auto;html=1;entryX=0.5;entryY=0;entryDx=0;entryDy=0;" edge="1" parent="WIyWlLk6GJQsqaUBKTNV-1" source="ltgAiF2F9rneKgyUhhyH-23" target="ltgAiF2F9rneKgyUhhyH-24">
          <mxGeometry relative="1" as="geometry" />
        </mxCell>
        <mxCell id="ltgAiF2F9rneKgyUhhyH-28" value="&lt;font face=&quot;Courier New&quot;&gt;No&lt;/font&gt;" style="edgeLabel;html=1;align=center;verticalAlign=middle;resizable=0;points=[];" vertex="1" connectable="0" parent="ltgAiF2F9rneKgyUhhyH-26">
          <mxGeometry x="-0.0377" relative="1" as="geometry">
            <mxPoint x="20" as="offset" />
          </mxGeometry>
        </mxCell>
        <mxCell id="ltgAiF2F9rneKgyUhhyH-23" value="&lt;font face=&quot;Courier New&quot;&gt;Up &amp;gt; left&lt;/font&gt;" style="rhombus;whiteSpace=wrap;html=1;" vertex="1" parent="WIyWlLk6GJQsqaUBKTNV-1">
          <mxGeometry x="160" y="840" width="120" height="80" as="geometry" />
        </mxCell>
        <mxCell id="ltgAiF2F9rneKgyUhhyH-30" style="edgeStyle=orthogonalEdgeStyle;rounded=0;orthogonalLoop=1;jettySize=auto;html=1;entryX=0.5;entryY=0;entryDx=0;entryDy=0;" edge="1" parent="WIyWlLk6GJQsqaUBKTNV-1" source="ltgAiF2F9rneKgyUhhyH-24" target="ltgAiF2F9rneKgyUhhyH-29">
          <mxGeometry relative="1" as="geometry" />
        </mxCell>
        <mxCell id="ltgAiF2F9rneKgyUhhyH-31" value="&lt;font face=&quot;Courier New&quot;&gt;No&lt;/font&gt;" style="edgeLabel;html=1;align=center;verticalAlign=middle;resizable=0;points=[];" vertex="1" connectable="0" parent="ltgAiF2F9rneKgyUhhyH-30">
          <mxGeometry x="-0.1538" y="-1" relative="1" as="geometry">
            <mxPoint x="21" as="offset" />
          </mxGeometry>
        </mxCell>
        <mxCell id="ltgAiF2F9rneKgyUhhyH-24" value="&lt;font face=&quot;Courier New&quot;&gt;Up &amp;lt; Left&lt;/font&gt;" style="rhombus;whiteSpace=wrap;html=1;" vertex="1" parent="WIyWlLk6GJQsqaUBKTNV-1">
          <mxGeometry x="160" y="1050" width="120" height="80" as="geometry" />
        </mxCell>
        <mxCell id="ltgAiF2F9rneKgyUhhyH-32" style="edgeStyle=orthogonalEdgeStyle;rounded=0;orthogonalLoop=1;jettySize=auto;html=1;endArrow=none;endFill=0;" edge="1" parent="WIyWlLk6GJQsqaUBKTNV-1" source="ltgAiF2F9rneKgyUhhyH-29">
          <mxGeometry relative="1" as="geometry">
            <mxPoint x="720" y="370" as="targetPoint" />
          </mxGeometry>
        </mxCell>
        <mxCell id="ltgAiF2F9rneKgyUhhyH-29" value="&lt;font face=&quot;Courier New&quot;&gt;Update Sensor values&lt;/font&gt;" style="rounded=1;whiteSpace=wrap;html=1;" vertex="1" parent="WIyWlLk6GJQsqaUBKTNV-1">
          <mxGeometry x="160" y="1260" width="120" height="40" as="geometry" />
        </mxCell>
      </root>
    </mxGraphModel>
  </diagram>
</mxfile>
